<mxfile host="Electron" agent="Mozilla/5.0 (Windows NT 10.0; Win64; x64) AppleWebKit/537.36 (KHTML, like Gecko) draw.io/27.0.5 Chrome/134.0.6998.205 Electron/35.3.0 Safari/537.36" version="27.0.5">
  <diagram name="Page-1" id="kux_Ah0KZvSNLFApVlGw">
    <mxGraphModel dx="2906" dy="1190" grid="1" gridSize="10" guides="1" tooltips="1" connect="1" arrows="1" fold="1" page="1" pageScale="1" pageWidth="850" pageHeight="1100" math="0" shadow="0">
      <root>
        <mxCell id="0" />
        <mxCell id="1" parent="0" />
        <mxCell id="Plab5cU1eizS763vwplL-28" value="" style="rounded=1;whiteSpace=wrap;html=1;fillColor=none;strokeWidth=3;strokeColor=#990000;" vertex="1" parent="1">
          <mxGeometry x="-10" y="50" width="370" height="760" as="geometry" />
        </mxCell>
        <mxCell id="Plab5cU1eizS763vwplL-1" value="&lt;font style=&quot;font-size: 16px;&quot;&gt;Payment_transaction_detail&lt;/font&gt;" style="swimlane;childLayout=stackLayout;horizontal=1;startSize=50;horizontalStack=0;rounded=1;fontSize=14;fontStyle=0;strokeWidth=2;resizeParent=0;resizeLast=1;shadow=0;dashed=0;align=center;arcSize=4;whiteSpace=wrap;html=1;strokeColor=#990000;" vertex="1" parent="1">
          <mxGeometry x="60" y="280" width="230" height="120" as="geometry" />
        </mxCell>
        <mxCell id="Plab5cU1eizS763vwplL-2" value="&lt;font style=&quot;font-size: 18px;&quot;&gt;customer_id&lt;/font&gt;" style="align=left;strokeColor=none;fillColor=none;spacingLeft=4;spacingRight=4;fontSize=12;verticalAlign=top;resizable=0;rotatable=0;part=1;html=1;whiteSpace=wrap;" vertex="1" parent="Plab5cU1eizS763vwplL-1">
          <mxGeometry y="50" width="230" height="70" as="geometry" />
        </mxCell>
        <mxCell id="Plab5cU1eizS763vwplL-4" value="&lt;font style=&quot;font-size: 16px;&quot;&gt;Customer_info&lt;/font&gt;" style="swimlane;childLayout=stackLayout;horizontal=1;startSize=50;horizontalStack=0;rounded=1;fontSize=14;fontStyle=0;strokeWidth=2;resizeParent=0;resizeLast=1;shadow=0;dashed=0;align=center;arcSize=4;whiteSpace=wrap;html=1;strokeColor=#990000;" vertex="1" parent="1">
          <mxGeometry x="60" y="460" width="230" height="120" as="geometry" />
        </mxCell>
        <mxCell id="Plab5cU1eizS763vwplL-5" value="&lt;font style=&quot;font-size: 18px;&quot;&gt;customer_id&lt;/font&gt;" style="align=left;strokeColor=none;fillColor=none;spacingLeft=4;spacingRight=4;fontSize=12;verticalAlign=top;resizable=0;rotatable=0;part=1;html=1;whiteSpace=wrap;" vertex="1" parent="Plab5cU1eizS763vwplL-4">
          <mxGeometry y="50" width="230" height="70" as="geometry" />
        </mxCell>
        <mxCell id="Plab5cU1eizS763vwplL-6" style="edgeStyle=orthogonalEdgeStyle;rounded=0;orthogonalLoop=1;jettySize=auto;html=1;exitX=0.5;exitY=1;exitDx=0;exitDy=0;entryX=0.5;entryY=0;entryDx=0;entryDy=0;strokeColor=#990000;" edge="1" parent="1" source="Plab5cU1eizS763vwplL-2" target="Plab5cU1eizS763vwplL-4">
          <mxGeometry relative="1" as="geometry" />
        </mxCell>
        <mxCell id="Plab5cU1eizS763vwplL-8" value="&lt;font style=&quot;font-size: 16px;&quot;&gt;trip_detail&lt;/font&gt;" style="swimlane;childLayout=stackLayout;horizontal=1;startSize=50;horizontalStack=0;rounded=1;fontSize=14;fontStyle=0;strokeWidth=2;resizeParent=0;resizeLast=1;shadow=0;dashed=0;align=center;arcSize=4;whiteSpace=wrap;html=1;strokeColor=#3333FF;" vertex="1" parent="1">
          <mxGeometry x="400" y="320" width="230" height="180" as="geometry" />
        </mxCell>
        <mxCell id="Plab5cU1eizS763vwplL-9" value="&lt;font style=&quot;font-size: 18px;&quot;&gt;customer_id&lt;/font&gt;&lt;div&gt;&lt;font style=&quot;font-size: 18px;&quot;&gt;driver_id&lt;/font&gt;&lt;/div&gt;&lt;div&gt;&lt;font style=&quot;font-size: 18px;&quot;&gt;location_id&lt;/font&gt;&lt;/div&gt;&lt;div&gt;&lt;font style=&quot;font-size: 18px;&quot;&gt;time_id&lt;/font&gt;&lt;/div&gt;&lt;div&gt;&lt;font style=&quot;font-size: 18px;&quot;&gt;vehicle_id&lt;/font&gt;&lt;/div&gt;" style="align=left;strokeColor=none;fillColor=none;spacingLeft=4;spacingRight=4;fontSize=12;verticalAlign=top;resizable=0;rotatable=0;part=1;html=1;whiteSpace=wrap;" vertex="1" parent="Plab5cU1eizS763vwplL-8">
          <mxGeometry y="50" width="230" height="130" as="geometry" />
        </mxCell>
        <mxCell id="Plab5cU1eizS763vwplL-10" style="edgeStyle=orthogonalEdgeStyle;rounded=0;orthogonalLoop=1;jettySize=auto;html=1;exitX=0;exitY=0.25;exitDx=0;exitDy=0;entryX=1;entryY=0.25;entryDx=0;entryDy=0;" edge="1" parent="1" source="Plab5cU1eizS763vwplL-9" target="Plab5cU1eizS763vwplL-5">
          <mxGeometry relative="1" as="geometry" />
        </mxCell>
        <mxCell id="Plab5cU1eizS763vwplL-11" value="&lt;font style=&quot;font-size: 16px;&quot;&gt;driver_info&lt;/font&gt;" style="swimlane;childLayout=stackLayout;horizontal=1;startSize=50;horizontalStack=0;rounded=1;fontSize=14;fontStyle=0;strokeWidth=2;resizeParent=0;resizeLast=1;shadow=0;dashed=0;align=center;arcSize=4;whiteSpace=wrap;html=1;strokeColor=#3333FF;" vertex="1" parent="1">
          <mxGeometry x="800" y="100" width="230" height="120" as="geometry" />
        </mxCell>
        <mxCell id="Plab5cU1eizS763vwplL-12" value="&lt;font style=&quot;font-size: 18px;&quot;&gt;driver_id&lt;/font&gt;" style="align=left;strokeColor=none;fillColor=none;spacingLeft=4;spacingRight=4;fontSize=12;verticalAlign=top;resizable=0;rotatable=0;part=1;html=1;whiteSpace=wrap;" vertex="1" parent="Plab5cU1eizS763vwplL-11">
          <mxGeometry y="50" width="230" height="70" as="geometry" />
        </mxCell>
        <mxCell id="Plab5cU1eizS763vwplL-14" value="&lt;font style=&quot;font-size: 16px;&quot;&gt;location_info&lt;/font&gt;" style="swimlane;childLayout=stackLayout;horizontal=1;startSize=50;horizontalStack=0;rounded=1;fontSize=14;fontStyle=0;strokeWidth=2;resizeParent=0;resizeLast=1;shadow=0;dashed=0;align=center;arcSize=4;whiteSpace=wrap;html=1;strokeColor=#3333FF;" vertex="1" parent="1">
          <mxGeometry x="890" y="260" width="230" height="120" as="geometry" />
        </mxCell>
        <mxCell id="Plab5cU1eizS763vwplL-15" value="&lt;font style=&quot;font-size: 18px;&quot;&gt;location_id&lt;/font&gt;" style="align=left;strokeColor=none;fillColor=none;spacingLeft=4;spacingRight=4;fontSize=12;verticalAlign=top;resizable=0;rotatable=0;part=1;html=1;whiteSpace=wrap;" vertex="1" parent="Plab5cU1eizS763vwplL-14">
          <mxGeometry y="50" width="230" height="70" as="geometry" />
        </mxCell>
        <mxCell id="Plab5cU1eizS763vwplL-18" value="&lt;font style=&quot;font-size: 16px;&quot;&gt;time&lt;/font&gt;&lt;span style=&quot;font-size: 16px; background-color: transparent; color: light-dark(rgb(0, 0, 0), rgb(255, 255, 255));&quot;&gt;_info&lt;/span&gt;" style="swimlane;childLayout=stackLayout;horizontal=1;startSize=50;horizontalStack=0;rounded=1;fontSize=14;fontStyle=0;strokeWidth=2;resizeParent=0;resizeLast=1;shadow=0;dashed=0;align=center;arcSize=4;whiteSpace=wrap;html=1;strokeColor=#3333FF;" vertex="1" parent="1">
          <mxGeometry x="890" y="470" width="230" height="120" as="geometry" />
        </mxCell>
        <mxCell id="Plab5cU1eizS763vwplL-19" value="&lt;font style=&quot;font-size: 18px;&quot;&gt;time_id&lt;/font&gt;" style="align=left;strokeColor=none;fillColor=none;spacingLeft=4;spacingRight=4;fontSize=12;verticalAlign=top;resizable=0;rotatable=0;part=1;html=1;whiteSpace=wrap;" vertex="1" parent="Plab5cU1eizS763vwplL-18">
          <mxGeometry y="50" width="230" height="70" as="geometry" />
        </mxCell>
        <mxCell id="Plab5cU1eizS763vwplL-21" value="&lt;span style=&quot;font-size: 16px; background-color: transparent; color: light-dark(rgb(0, 0, 0), rgb(255, 255, 255));&quot;&gt;vehicle_info&lt;/span&gt;" style="swimlane;childLayout=stackLayout;horizontal=1;startSize=50;horizontalStack=0;rounded=1;fontSize=14;fontStyle=0;strokeWidth=2;resizeParent=0;resizeLast=1;shadow=0;dashed=0;align=center;arcSize=4;whiteSpace=wrap;html=1;strokeColor=#3333FF;" vertex="1" parent="1">
          <mxGeometry x="800" y="660" width="230" height="120" as="geometry" />
        </mxCell>
        <mxCell id="Plab5cU1eizS763vwplL-22" value="&lt;font style=&quot;font-size: 18px;&quot;&gt;vehicle_id&lt;/font&gt;" style="align=left;strokeColor=none;fillColor=none;spacingLeft=4;spacingRight=4;fontSize=12;verticalAlign=top;resizable=0;rotatable=0;part=1;html=1;whiteSpace=wrap;" vertex="1" parent="Plab5cU1eizS763vwplL-21">
          <mxGeometry y="50" width="230" height="70" as="geometry" />
        </mxCell>
        <mxCell id="Plab5cU1eizS763vwplL-23" style="edgeStyle=orthogonalEdgeStyle;rounded=0;orthogonalLoop=1;jettySize=auto;html=1;exitX=0;exitY=0.25;exitDx=0;exitDy=0;entryX=1.004;entryY=0.83;entryDx=0;entryDy=0;entryPerimeter=0;strokeColor=#3333FF;" edge="1" parent="1" source="Plab5cU1eizS763vwplL-22" target="Plab5cU1eizS763vwplL-9">
          <mxGeometry relative="1" as="geometry" />
        </mxCell>
        <mxCell id="Plab5cU1eizS763vwplL-24" style="edgeStyle=orthogonalEdgeStyle;rounded=0;orthogonalLoop=1;jettySize=auto;html=1;exitX=0;exitY=0.25;exitDx=0;exitDy=0;entryX=1.004;entryY=0.671;entryDx=0;entryDy=0;entryPerimeter=0;strokeColor=#3333FF;" edge="1" parent="1" source="Plab5cU1eizS763vwplL-19" target="Plab5cU1eizS763vwplL-9">
          <mxGeometry relative="1" as="geometry" />
        </mxCell>
        <mxCell id="Plab5cU1eizS763vwplL-25" style="edgeStyle=orthogonalEdgeStyle;rounded=0;orthogonalLoop=1;jettySize=auto;html=1;exitX=0;exitY=0.25;exitDx=0;exitDy=0;entryX=1;entryY=0.5;entryDx=0;entryDy=0;strokeColor=#3333FF;" edge="1" parent="1" source="Plab5cU1eizS763vwplL-15" target="Plab5cU1eizS763vwplL-9">
          <mxGeometry relative="1" as="geometry" />
        </mxCell>
        <mxCell id="Plab5cU1eizS763vwplL-26" style="edgeStyle=orthogonalEdgeStyle;rounded=0;orthogonalLoop=1;jettySize=auto;html=1;exitX=0;exitY=0.25;exitDx=0;exitDy=0;entryX=1.004;entryY=0.359;entryDx=0;entryDy=0;entryPerimeter=0;strokeColor=#3333FF;" edge="1" parent="1" source="Plab5cU1eizS763vwplL-12" target="Plab5cU1eizS763vwplL-9">
          <mxGeometry relative="1" as="geometry" />
        </mxCell>
        <mxCell id="Plab5cU1eizS763vwplL-29" value="" style="rounded=1;whiteSpace=wrap;html=1;fillColor=none;strokeWidth=3;strokeColor=#990000;" vertex="1" parent="1">
          <mxGeometry x="380" y="50" width="790" height="760" as="geometry" />
        </mxCell>
        <mxCell id="Plab5cU1eizS763vwplL-30" value="&lt;font style=&quot;font-size: 20px;&quot;&gt;CRM&lt;/font&gt;" style="rounded=0;whiteSpace=wrap;html=1;fillColor=#9AC7BF;" vertex="1" parent="1">
          <mxGeometry x="115" y="30" width="120" height="60" as="geometry" />
        </mxCell>
        <mxCell id="Plab5cU1eizS763vwplL-31" value="&lt;font style=&quot;font-size: 20px;&quot;&gt;ERP&lt;/font&gt;" style="rounded=0;whiteSpace=wrap;html=1;fillColor=#9AC7BF;" vertex="1" parent="1">
          <mxGeometry x="700" y="30" width="120" height="60" as="geometry" />
        </mxCell>
      </root>
    </mxGraphModel>
  </diagram>
</mxfile>
